# xmcd
#
# Track frame offsets:
#	150
#	3437
#	18229
#	31609
#	42103
#	54325
#	67984
#	83896
#	95926
#	108016
#	124824
#	136001
#	148421
#	166676
#	176201
#	187994
#	201326
#	213016
#	224670
#	241553
#	253703
#	263101
#	273072
#	286595
#	299672
#
# Disc length: 4251 seconds
#
# Revision: 0
# Processed by: cddbd v1.4PL0 Copyright (c) Steve Scherf et al.
# Submitted via: EasyCDDAExtractor 4.6.9.1
#
DISCID=60109919
DTITLE=Mike Auldridge - Dobro/Blues and Bluegrass
DYEAR=2002
DGENRE=Country
TTITLE0=Hillbilly Hula
TTITLE1=Tennessee Stud
TTITLE2=It's Over
TTITLE3=Pickaway
TTITLE4=Rollin' Fog
TTITLE5=Dobro Island
TTITLE6=Train
TTITLE7=Take Me
TTITLE8=Greensleeves
TTITLE9=Silver Threads
TTITLE10=Rock Bottom
TTITLE11=Jamboree
TTITLE12=House of the Rising Sun
TTITLE13=New Camptown Races
TTITLE14=Mexican Rose
TTITLE15=Killing Me Softly With His Song
TTITLE16=This Ain't Grass
TTITLE17=8 More Miles to Louisville
TTITLE18=Sum of Marcie's Blues
TTITLE19=Bottom Dollar
TTITLE20=Struttin' the Blues
TTITLE21=Panhandle Country
TTITLE22=Summertime
TTITLE23=Walk Don't Run
TTITLE24=Everybody Slides
EXTD=
EXTT0=
EXTT1=
EXTT2=
EXTT3=
EXTT4=
EXTT5=
EXTT6=
EXTT7=
EXTT8=
EXTT9=
EXTT10=
EXTT11=
EXTT12=
EXTT13=
EXTT14=
EXTT15=
EXTT16=
EXTT17=
EXTT18=
EXTT19=
EXTT20=
EXTT21=
EXTT22=
EXTT23=
EXTT24=
PLAYORDER=
